# xmcd
#
# Track frame offsets:
#	150
#	19389
#	32052
#	41983
#	51603
#	67737
#	73691
#	89783
#	102692
#	115804
#	128859
#	141849
#	152752
#	168096
#	181474
#	195090
#
# Disc length: 2840 seconds
#
# Revision: 1
# Processed by: cddbd v1.5PL3 Copyright (c) Steve Scherf et al.
# Submitted via: dBpowerAMP V4.0
#
DISCID=ea0b1610
DTITLE=Various Artist - The Best Of Country And Western
DYEAR=1900
DGENRE=country
TTITLE0=John Denver - To The Wild Country
TTITLE1=Keny Rogers - Reuben James
TTITLE2=Willie Nelson - Broken Promises
TTITLE3=Loretta Lynn - You Ain't Woman Enough
TTITLE4=Johnny Cash - A Boy Named Sue
TTITLE5=Jim Reeves - Have I Told You Lately That I Love You
TTITLE6=Brenda Lee - Coming On Strong
TTITLE7=Ferlin Husky - Me And Old C.B.
TTITLE8=Charly Pride - Kaw Liga
TTITLE9=George Jones - Hello Darlin'
TTITLE10=Faron Young - Four In The Morning
TTITLE11=Stonewall Jackson - Things To Talk About
TTITLE12=Melba Montgomery - No Charge
TTITLE13=Billie Jo Spears - Fever
TTITLE14=Jerry Lee Lewis - Will The Circle Be Unbroken
TTITLE15=Bobby Bare - The Jogger
EXTD=No. 96009
EXTT0=
EXTT1=
EXTT2=
EXTT3=
EXTT4=
EXTT5=
EXTT6=
EXTT7=
EXTT8=
EXTT9=
EXTT10=
EXTT11=
EXTT12=
EXTT13=
EXTT14=
EXTT15=
PLAYORDER=
